<svg width="24" height="25" viewBox="0 0 24 25" fill="none" xmlns="http://www.w3.org/2000/svg">
<path d="M2 8.01465C2 8.01465 6.47715 3.01465 12 3.01465C17.5228 3.01465 22 8.01465 22 8.01465" stroke="#1BA68C" stroke-width="1.5" stroke-linecap="round"/>
<path d="M21.544 13.0596C21.848 13.4859 22 13.6991 22 14.0146C22 14.3301 21.848 14.5433 21.544 14.9696C20.1779 16.8852 16.6892 21.0146 12 21.0146C7.31078 21.0146 3.8221 16.8852 2.45604 14.9696C2.15201 14.5433 2 14.3301 2 14.0146C2 13.6991 2.15201 13.4859 2.45604 13.0596C3.8221 11.144 7.31078 7.01465 12 7.01465C16.6892 7.01465 20.1779 11.144 21.544 13.0596Z" stroke="#1BA68C" stroke-width="1.5"/>
<path d="M15 14.0146C15 12.3577 13.6569 11.0146 12 11.0146C10.3431 11.0146 9 12.3577 9 14.0146C9 15.6715 10.3431 17.0146 12 17.0146C13.6569 17.0146 15 15.6715 15 14.0146Z" stroke="#1BA68C" stroke-width="1.5"/>
</svg>
