<svg width="14" height="14" viewBox="0 0 14 14" fill="none" xmlns="http://www.w3.org/2000/svg">
<path d="M7 1.87952C8.65663 1.87952 8.88253 1.87952 9.56024 1.87952C10.1627 1.87952 10.4639 2.03012 10.6898 2.10542C10.991 2.25602 11.2169 2.33133 11.4428 2.55723C11.6687 2.78313 11.8193 3.00904 11.8946 3.31024C11.9699 3.53615 12.0452 3.83735 12.1205 4.43976C12.1205 5.11747 12.1205 5.26807 12.1205 7C12.1205 8.73193 12.1205 8.88253 12.1205 9.56024C12.1205 10.1627 11.9699 10.4639 11.8946 10.6898C11.744 10.991 11.6687 11.2169 11.4428 11.4428C11.2169 11.6687 10.991 11.8193 10.6898 11.8946C10.4639 11.9699 10.1627 12.0452 9.56024 12.1205C8.88253 12.1205 8.73193 12.1205 7 12.1205C5.26807 12.1205 5.11747 12.1205 4.43976 12.1205C3.83735 12.1205 3.53615 11.9699 3.31024 11.8946C3.00904 11.744 2.78313 11.6687 2.55723 11.4428C2.33133 11.2169 2.18072 10.991 2.10542 10.6898C2.03012 10.4639 1.95482 10.1627 1.87952 9.56024C1.87952 8.88253 1.87952 8.73193 1.87952 7C1.87952 5.26807 1.87952 5.11747 1.87952 4.43976C1.87952 3.83735 2.03012 3.53615 2.10542 3.31024C2.25602 3.00904 2.33133 2.78313 2.55723 2.55723C2.78313 2.33133 3.00904 2.18072 3.31024 2.10542C3.53615 2.03012 3.83735 1.95482 4.43976 1.87952C5.11747 1.87952 5.34337 1.87952 7 1.87952ZM7 0.75C5.26807 0.75 5.11747 0.75 4.43976 0.75C3.76205 0.75 3.31024 0.900603 2.93374 1.05121C2.55723 1.20181 2.18072 1.42771 1.80422 1.80422C1.42771 2.18072 1.27711 2.48193 1.05121 2.93374C0.900603 3.31024 0.825301 3.76205 0.75 4.43976C0.75 5.11747 0.75 5.34337 0.75 7C0.75 8.73193 0.75 8.88253 0.75 9.56024C0.75 10.238 0.900603 10.6898 1.05121 11.0663C1.20181 11.4428 1.42771 11.8193 1.80422 12.1958C2.18072 12.5723 2.48193 12.7229 2.93374 12.9488C3.31024 13.0994 3.76205 13.1747 4.43976 13.25C5.11747 13.25 5.34337 13.25 7 13.25C8.65663 13.25 8.88253 13.25 9.56024 13.25C10.238 13.25 10.6898 13.0994 11.0663 12.9488C11.4428 12.7982 11.8193 12.5723 12.1958 12.1958C12.5723 11.8193 12.7229 11.5181 12.9488 11.0663C13.0994 10.6898 13.1747 10.238 13.25 9.56024C13.25 8.88253 13.25 8.65663 13.25 7C13.25 5.34337 13.25 5.11747 13.25 4.43976C13.25 3.76205 13.0994 3.31024 12.9488 2.93374C12.7982 2.55723 12.5723 2.18072 12.1958 1.80422C11.8193 1.42771 11.5181 1.27711 11.0663 1.05121C10.6898 0.900603 10.238 0.825301 9.56024 0.75C8.88253 0.75 8.73193 0.75 7 0.75Z" fill="white"/>
<path d="M7 3.76205C5.19277 3.76205 3.76205 5.19277 3.76205 7C3.76205 8.80723 5.19277 10.238 7 10.238C8.80723 10.238 10.238 8.80723 10.238 7C10.238 5.19277 8.80723 3.76205 7 3.76205ZM7 9.10843C5.87048 9.10843 4.89157 8.20482 4.89157 7C4.89157 5.87048 5.79518 4.89157 7 4.89157C8.12952 4.89157 9.10843 5.79518 9.10843 7C9.10843 8.12952 8.12952 9.10843 7 9.10843Z" fill="white"/>
<path d="M10.3133 4.43976C10.7291 4.43976 11.0663 4.10262 11.0663 3.68675C11.0663 3.27087 10.7291 2.93374 10.3133 2.93374C9.89738 2.93374 9.56024 3.27087 9.56024 3.68675C9.56024 4.10262 9.89738 4.43976 10.3133 4.43976Z" fill="white"/>
</svg>
