<svg width="20" height="20" viewBox="0 0 20 20" fill="none" xmlns="http://www.w3.org/2000/svg">
<path d="M6.09375 8.4375V13.9062" stroke="white" stroke-width="1.17188" stroke-linecap="round" stroke-linejoin="round"/>
<path d="M9.21875 10.7812V13.9062M9.21875 10.7812C9.21875 9.4868 10.268 8.4375 11.5625 8.4375C12.857 8.4375 13.9062 9.4868 13.9062 10.7812V13.9062M9.21875 10.7812V8.4375" stroke="white" stroke-width="1.17188" stroke-linecap="round" stroke-linejoin="round"/>
<path d="M6.10077 6.09375H6.09375" stroke="white" stroke-width="1.5625" stroke-linecap="round" stroke-linejoin="round"/>
<path d="M2.57812 10C2.57812 6.5013 2.57812 4.75195 3.66503 3.66503C4.75195 2.57812 6.5013 2.57812 10 2.57812C13.4987 2.57812 15.248 2.57812 16.335 3.66503C17.4219 4.75195 17.4219 6.5013 17.4219 10C17.4219 13.4987 17.4219 15.248 16.335 16.335C15.248 17.4219 13.4987 17.4219 10 17.4219C6.5013 17.4219 4.75195 17.4219 3.66503 16.335C2.57812 15.248 2.57812 13.4987 2.57812 10Z" stroke="white" stroke-width="1.17188" stroke-linejoin="round"/>
</svg>
