<svg width="396" height="378" viewBox="0 0 396 378" fill="none" xmlns="http://www.w3.org/2000/svg">
<path d="M329.598 326.576L154.338 319.414L110.036 325.851L100.668 324.831L86.9653 328.648L75.3496 331.957C87.5395 338.671 141.539 343.731 206.317 343.731C263.072 343.731 311.551 339.846 330.89 334.369L329.598 326.576Z" fill="#B5AF25"/>
<path d="M151.955 226.551H55.4934C48.5353 226.551 45.5133 217.796 50.9378 213.442C55.5085 209.775 61.3032 207.575 67.6116 207.575C70.6184 207.575 73.5044 208.074 76.2015 208.996C79.4124 210.093 82.9859 208.762 84.7159 205.836C89.3622 197.997 97.8993 192.742 107.66 192.742C109.662 192.742 111.604 192.962 113.478 193.377C120.262 194.889 126.079 198.995 129.827 204.597C131.33 206.849 133.974 208.089 136.664 207.764C137.706 207.643 138.764 207.575 139.837 207.575C146.145 207.575 151.94 209.775 156.511 213.442C161.935 217.796 158.913 226.551 151.955 226.551Z" fill="#EDEDED"/>
<path opacity="0.5" d="M113.478 193.377C105.22 196.825 97.1514 201.126 96.4261 204.975C94.9151 213.041 61.1672 217.04 63.683 221.796C64.4309 223.202 64.9598 224.789 65.3602 226.551H55.4934C48.5353 226.551 45.5133 217.796 50.9378 213.442C55.5085 209.775 61.3032 207.575 67.6115 207.575C70.6184 207.575 73.5044 208.074 76.2015 208.996C79.4124 210.093 82.9859 208.762 84.7159 205.836C89.3622 197.997 97.8993 192.742 107.66 192.742C109.662 192.742 111.604 192.962 113.478 193.377Z" fill="#E5E5E5"/>
<path opacity="0.5" d="M365.013 258.044C359.241 260.486 351.006 264.757 349.404 269.823C346.888 277.783 331.778 270.979 329.006 277.277C328.182 279.144 328.711 280.717 329.535 282.04H323.241C318.217 282.04 316.026 275.712 319.947 272.567C323.249 269.913 327.442 268.333 331.997 268.333C334.166 268.333 336.258 268.689 338.2 269.354C340.527 270.148 343.111 269.18 344.357 267.071C347.712 261.408 353.884 257.613 360.94 257.613C362.338 257.613 363.698 257.764 365.013 258.044Z" fill="#E5E5E3"/>
<path d="M177.971 319.062L125.751 327.385C125.706 327.393 125.66 327.4 125.615 327.4L109.462 329.978C109.032 327.249 106.471 325.382 103.728 325.82H103.721C100.993 326.251 99.1273 328.829 99.5655 331.558L86.0799 333.706C83.0429 334.189 80.1871 332.125 79.7036 329.079L74.7022 297.667L73.7654 291.778C73.2819 288.731 75.3519 285.881 78.389 285.397L80.5799 285.049L91.8746 283.25C92.3052 285.979 94.8815 287.847 97.6163 287.416C100.351 286.977 102.21 284.407 101.772 281.67L170.287 270.753C173.324 270.27 176.18 272.333 176.664 275.38L177.601 281.269L182.602 312.681C183.085 315.728 181.008 318.578 177.971 319.062Z" fill="#FCEA9E"/>
<path d="M97.6133 287.412L103.725 325.817" stroke="black" stroke-width="0.756" stroke-miterlimit="10"/>
<path d="M177.601 281.269L98.6438 293.849L81.3883 296.601L74.7022 297.667L73.7654 291.778C73.2819 288.731 75.3519 285.881 78.389 285.397L80.5799 285.049L91.8746 283.25C92.3052 285.979 94.8815 287.847 97.6163 287.416C100.351 286.977 102.21 284.407 101.772 281.67L170.287 270.753C173.324 270.27 176.18 272.333 176.664 275.38L177.601 281.269Z" fill="#56290E"/>
<path d="M96.8223 301.052L79.1406 303.871L79.3215 305.007L97.0032 302.189L96.8223 301.052Z" fill="#353535"/>
<path d="M98.293 310.305L80.6113 313.124L80.818 314.422L98.4997 311.604L98.293 310.305Z" fill="#353535"/>
<path d="M99.6599 319.908L82.3027 322.674L82.5094 323.973L99.8665 321.206L99.6599 319.908Z" fill="#353535"/>
<path d="M170.927 289.075L106.203 299.391L106.384 300.527L171.108 290.211L170.927 289.075Z" fill="#353535"/>
<path d="M172.404 298.327L107.68 308.643L107.886 309.941L172.611 299.626L172.404 298.327Z" fill="#353535"/>
<path d="M173.333 307.998L109.797 318.125L110.004 319.423L173.54 309.297L173.333 307.998Z" fill="#353535"/>
<path d="M109 283.144L109.673 283.036L110.423 287.746L109.75 287.854L109 283.144ZM107.045 288.285L106.372 288.392L105.623 283.682L106.295 283.575L107.045 288.285ZM109.476 285.745L106.644 286.196L106.551 285.611L109.383 285.159L109.476 285.745ZM113.272 287.334C112.913 287.391 112.582 287.363 112.279 287.25C111.976 287.138 111.722 286.957 111.517 286.71C111.311 286.457 111.181 286.156 111.125 285.806C111.069 285.452 111.099 285.125 111.217 284.826C111.335 284.526 111.521 284.278 111.775 284.081C112.028 283.88 112.334 283.751 112.693 283.693C113.047 283.637 113.376 283.665 113.679 283.778C113.986 283.885 114.24 284.063 114.44 284.312C114.644 284.555 114.775 284.856 114.832 285.215C114.889 285.57 114.858 285.896 114.74 286.196C114.627 286.495 114.441 286.745 114.183 286.947C113.93 287.148 113.627 287.277 113.272 287.334ZM113.182 286.768C113.411 286.732 113.607 286.648 113.77 286.516C113.937 286.384 114.058 286.215 114.131 286.01C114.203 285.801 114.22 285.57 114.18 285.319C114.139 285.064 114.052 284.852 113.92 284.685C113.787 284.513 113.62 284.39 113.42 284.316C113.224 284.241 113.012 284.222 112.783 284.259C112.554 284.295 112.358 284.379 112.195 284.511C112.032 284.643 111.912 284.811 111.834 285.017C111.756 285.218 111.737 285.446 111.778 285.702C111.818 285.953 111.907 286.167 112.045 286.343C112.183 286.514 112.35 286.637 112.545 286.711C112.741 286.786 112.954 286.805 113.182 286.768ZM117.24 286.701C116.882 286.758 116.588 286.706 116.36 286.545C116.132 286.383 115.989 286.123 115.932 285.764L115.412 282.494L116.058 282.391L116.574 285.635C116.605 285.827 116.675 285.968 116.786 286.056C116.901 286.144 117.048 286.173 117.228 286.144C117.43 286.112 117.589 286.029 117.706 285.896L117.981 286.328C117.896 286.429 117.787 286.511 117.655 286.573C117.527 286.635 117.388 286.678 117.24 286.701ZM115.015 283.903L114.93 283.371L117.205 283.009L117.289 283.54L115.015 283.903ZM120.272 286.218C119.89 286.279 119.541 286.254 119.225 286.143C118.913 286.032 118.654 285.853 118.449 285.605C118.249 285.356 118.12 285.055 118.064 284.7C118.007 284.346 118.034 284.02 118.143 283.722C118.256 283.423 118.435 283.176 118.68 282.981C118.929 282.78 119.223 282.653 119.564 282.598C119.91 282.543 120.227 282.571 120.516 282.681C120.805 282.791 121.045 282.974 121.238 283.228C121.434 283.478 121.561 283.786 121.62 284.154C121.624 284.181 121.627 284.213 121.628 284.249C121.634 284.285 121.637 284.319 121.637 284.351L118.603 284.835L118.529 284.371L121.227 283.941L120.99 284.144C120.958 283.915 120.879 283.718 120.751 283.554C120.624 283.391 120.465 283.273 120.275 283.203C120.088 283.127 119.88 283.107 119.651 283.143C119.427 283.179 119.235 283.262 119.077 283.393C118.918 283.52 118.803 283.683 118.734 283.883C118.664 284.078 118.647 284.292 118.684 284.525L118.702 284.633C118.739 284.871 118.827 285.075 118.965 285.247C119.106 285.413 119.284 285.531 119.498 285.603C119.711 285.675 119.946 285.69 120.202 285.65C120.413 285.616 120.598 285.55 120.757 285.451C120.92 285.351 121.055 285.219 121.163 285.055L121.586 285.415C121.454 285.629 121.275 285.805 121.049 285.942C120.827 286.079 120.568 286.171 120.272 286.218ZM122.797 285.774L122.002 280.781L122.648 280.679L123.443 285.671L122.797 285.774Z" fill="#F0F0F0"/>
<path d="M77.4182 291.664L77.3676 291.346L78.4972 289.845C78.5979 289.714 78.6697 289.602 78.7125 289.508C78.7579 289.411 78.7842 289.326 78.7915 289.251C78.8015 289.172 78.801 289.099 78.79 289.03C78.7632 288.862 78.6828 288.738 78.5487 288.66C78.4147 288.583 78.2337 288.562 78.0058 288.598C77.831 288.626 77.678 288.681 77.547 288.762C77.4155 288.841 77.3079 288.949 77.2242 289.088L76.8618 288.862C76.9613 288.683 77.109 288.535 77.3047 288.417C77.5031 288.296 77.7287 288.215 77.9816 288.175C78.2095 288.138 78.4137 288.144 78.5942 288.192C78.7742 288.237 78.9205 288.321 79.0329 288.444C79.1484 288.566 79.2211 288.721 79.2509 288.909C79.2678 289.015 79.2704 289.122 79.2587 289.229C79.247 289.337 79.2113 289.454 79.1516 289.582C79.092 289.71 79.0002 289.858 78.8763 290.025L77.8695 291.362L77.728 291.197L79.7089 290.881L79.7737 291.289L77.4182 291.664ZM81.1669 291.105C80.9358 291.142 80.7054 291.142 80.4754 291.105C80.2485 291.067 80.0567 290.999 79.9 290.899L80.0565 290.495C80.1822 290.58 80.3377 290.642 80.5229 290.68C80.7082 290.717 80.9007 290.72 81.1005 290.688C81.344 290.649 81.5247 290.568 81.6426 290.443C81.763 290.315 81.8091 290.162 81.7808 289.984C81.7534 289.813 81.666 289.686 81.5185 289.604C81.3736 289.518 81.1607 289.497 80.8797 289.542L80.6175 289.584L80.5653 289.256L81.3485 287.902L81.4439 288.079L79.6503 288.365L79.5855 287.957L81.749 287.613L81.7997 287.931L81.0204 289.28L80.7538 289.173L80.9083 289.149C81.3048 289.086 81.6155 289.127 81.8405 289.274C82.0687 289.42 82.2046 289.63 82.2483 289.905C82.2776 290.089 82.2592 290.265 82.193 290.433C82.1268 290.6 82.0089 290.744 81.8391 290.863C81.6719 290.98 81.4478 291.06 81.1669 291.105Z" fill="#F0F0F0"/>
<path d="M167.088 277.374L167.037 277.056L168.167 275.555C168.268 275.424 168.34 275.312 168.382 275.218C168.428 275.122 168.454 275.036 168.461 274.961C168.471 274.883 168.471 274.809 168.46 274.74C168.433 274.572 168.353 274.449 168.219 274.371C168.085 274.293 167.904 274.272 167.676 274.308C167.501 274.336 167.348 274.391 167.217 274.473C167.085 274.551 166.978 274.66 166.894 274.798L166.532 274.572C166.631 274.393 166.779 274.245 166.975 274.127C167.173 274.006 167.399 273.925 167.652 273.885C167.879 273.848 168.084 273.854 168.264 273.902C168.444 273.947 168.59 274.031 168.703 274.154C168.818 274.277 168.891 274.432 168.921 274.619C168.938 274.725 168.94 274.832 168.929 274.939C168.917 275.047 168.881 275.165 168.822 275.293C168.762 275.421 168.67 275.568 168.546 275.735L167.539 277.072L167.398 276.907L169.379 276.591L169.444 276.999L167.088 277.374ZM170.837 276.815C170.606 276.852 170.375 276.852 170.145 276.815C169.918 276.778 169.727 276.709 169.57 276.609L169.726 276.205C169.852 276.29 170.008 276.352 170.193 276.39C170.378 276.427 170.571 276.43 170.77 276.398C171.014 276.36 171.195 276.278 171.312 276.154C171.433 276.026 171.479 275.873 171.451 275.695C171.423 275.523 171.336 275.396 171.188 275.314C171.044 275.228 170.831 275.208 170.55 275.252L170.287 275.294L170.235 274.966L171.018 273.612L171.114 273.789L169.32 274.075L169.255 273.668L171.419 273.323L171.47 273.641L170.69 274.99L170.424 274.884L170.578 274.859C170.975 274.796 171.285 274.837 171.51 274.984C171.739 275.13 171.875 275.341 171.918 275.615C171.948 275.8 171.929 275.975 171.863 276.143C171.797 276.31 171.679 276.454 171.509 276.574C171.342 276.69 171.118 276.771 170.837 276.815Z" fill="#F0F0F0"/>
<path opacity="0.1" d="M125.615 327.401L109.463 329.979C109.032 327.25 106.471 325.382 103.728 325.821H103.721C100.993 326.252 99.1273 328.83 99.5655 331.559L86.0799 333.706C83.0429 334.19 80.1871 332.126 79.7036 329.079L74.7022 297.667L73.7654 291.778C73.2819 288.731 75.3519 285.881 78.389 285.397L80.5799 285.05C80.6706 286.909 80.9124 291.339 81.3883 296.601C81.5848 298.756 81.8265 301.054 82.1136 303.383C82.1589 303.761 82.2043 304.146 82.2571 304.524C82.6122 307.299 83.0353 310.073 83.5415 312.644C83.6321 313.082 83.7153 313.513 83.8059 313.936C84.501 317.195 85.332 320.045 86.3368 322.018C86.5559 322.472 86.7977 322.88 87.047 323.235C87.3643 323.704 87.7043 324.082 88.0593 324.354C94.126 329.049 95.9543 323.711 103.434 323.953C103.532 323.953 103.63 323.953 103.728 323.961C111.412 324.354 115.718 328.935 125.615 327.401Z" fill="#353535"/>
<path d="M154.649 226.83L154.415 228.183L152.382 239.916L148.061 264.826C147.381 268.742 143.656 271.366 139.743 270.685L115.28 266.437C115.28 266.437 115.272 266.437 115.257 266.429L74.5816 259.368C70.6681 258.688 68.0465 254.961 68.7265 251.037L73.0479 226.134L75.0802 214.401L75.3144 213.048C75.9943 209.132 79.7189 206.501 83.6324 207.181L84.8789 207.401L148.794 218.506C152.707 219.187 155.329 222.914 154.649 226.83Z" fill="#1B85A6"/>
<path d="M154.414 228.183L152.381 239.916L82.6719 227.805L73.0469 226.134L75.0792 214.401L83.8278 215.921L154.414 228.183Z" fill="#454545"/>
<path d="M119.565 260.992L77.252 253.641C76.3265 253.48 75.7063 252.599 75.8672 251.673C76.0281 250.747 76.9083 250.126 77.8338 250.287L120.147 257.638C121.072 257.8 121.692 258.68 121.532 259.606C121.371 260.532 120.49 261.153 119.565 260.992Z" fill="#454545"/>
<path d="M137.432 262.182C137.254 263.208 136.278 263.895 135.253 263.717C134.228 263.538 133.541 262.562 133.72 261.536C133.898 260.51 134.873 259.823 135.898 260.002C136.924 260.18 137.61 261.156 137.432 262.182Z" fill="#FFD63C"/>
<path d="M139.735 262.583C139.557 263.609 138.581 264.296 137.556 264.117C136.531 263.939 135.844 262.963 136.022 261.937C136.201 260.911 137.176 260.224 138.201 260.402C139.226 260.581 139.913 261.557 139.735 262.583Z" fill="#F44E1A"/>
<path opacity="0.1" d="M115.257 266.429L74.5815 259.368C70.6681 258.688 68.0465 254.961 68.7265 251.037L73.0479 226.134L75.0802 214.401L75.3144 213.048C75.9943 209.132 79.7189 206.501 83.6324 207.181L84.8789 207.401C84.8789 207.401 84.403 210.863 83.8288 215.921C83.4435 219.345 83.0204 223.503 82.6729 227.805C81.9552 236.696 81.585 246.206 82.6276 251.12C82.9222 252.511 83.3302 253.532 83.8741 254.069C84.1688 254.363 84.5541 254.666 85.0074 254.983C85.0074 254.983 85.0149 254.983 85.0149 254.991C91.7691 259.648 114.502 266.21 115.257 266.429Z" fill="#454545"/>
<path d="M123.553 280.012C123.54 279.793 123.521 279.565 123.494 279.338C123.453 279.02 123.411 278.703 123.348 278.391C122.057 271.561 115.692 266.803 108.684 267.615C104.121 268.15 100.374 270.928 98.4104 274.727C98.007 275.493 97.6867 276.297 97.4411 277.133C97.3701 277.344 97.3142 277.563 97.2659 277.781C97.2583 277.796 97.2576 277.819 97.25 277.834L72.2167 280.746C69.2423 281.092 67.1133 283.784 67.4586 286.761C67.5462 287.564 68.1884 288.116 68.9575 288.195C69.101 288.212 69.2521 288.214 69.4032 288.193C69.4108 288.193 69.4108 288.193 69.4183 288.193C70.4851 288.072 70.2796 287.645 71.3811 288.318C71.9553 288.878 72.4078 288.354 72.4093 288.286C72.5227 286.594 72.7954 286.576 74.2255 286.405C74.8609 286.331 75.4706 286.498 75.973 286.83C76.4747 287.161 77.101 287.26 77.6328 286.988C77.9071 286.841 78.21 286.746 78.5356 286.713C78.8839 286.672 79.2307 286.7 79.5472 286.795C80.1796 286.977 80.8837 286.836 81.2992 286.327C81.7065 285.818 82.3078 285.463 83.0119 285.383C83.7085 285.301 84.3703 285.507 84.8863 285.907C85.4099 286.307 86.1276 286.287 86.6988 285.962C86.9881 285.799 87.3145 285.69 87.6703 285.649C87.8894 285.622 88.1085 285.633 88.3276 285.666C88.7363 285.067 89.3838 284.637 90.1635 284.549C90.8978 284.461 91.5898 284.689 92.1202 285.135C92.5463 285.489 93.1265 285.595 93.6501 285.42C93.817 285.37 93.984 285.334 94.1653 285.306C95.1263 285.198 96.0276 285.626 96.561 286.359C96.91 286.84 97.4494 287.127 98.0402 287.06L98.3885 287.019C100.87 291.809 106.103 294.813 111.779 294.149C118.869 293.324 124.016 287.072 123.553 280.012ZM119.645 282.319C118.268 282.481 117.019 281.497 116.857 280.111C116.802 279.649 116.876 279.204 117.055 278.805C117.398 278.016 118.147 277.429 119.063 277.321C120.107 277.199 121.067 277.726 121.547 278.587C121.709 278.869 121.818 279.188 121.859 279.529C122.014 280.914 121.03 282.163 119.645 282.319Z" fill="#FFD63C"/>
<path d="M123.554 280.012C123.418 280.555 123.26 281.089 123.056 281.623C120.446 288.521 112.745 292.001 105.845 289.39C100.801 287.476 97.5917 282.836 97.2676 277.781C97.3159 277.563 97.3718 277.344 97.4429 277.133C98.2747 281.545 101.305 285.434 105.815 287.143C112.716 289.747 120.417 286.275 123.026 279.37C123.152 279.046 123.254 278.722 123.35 278.391C123.618 277.48 123.782 276.553 123.847 275.639C123.979 277.077 123.898 278.55 123.554 280.012Z" fill="#EFC43A"/>
<path d="M120.049 277.792C120.652 278.02 121.107 278.459 121.382 278.989C121.415 278.921 121.455 278.86 121.482 278.788C121.974 277.487 121.319 276.035 120.019 275.543C118.719 275.051 117.267 275.706 116.775 277.007C116.512 277.705 116.587 278.442 116.905 279.055C117.467 277.895 118.82 277.327 120.049 277.792Z" fill="#EFC43A"/>
<path d="M98.9178 282.037C92.7507 281.069 93.9255 280.2 80.4324 281.787C66.9317 283.366 68.6429 287.585 68.6429 287.585L68.9594 288.195C68.1896 288.116 67.5474 287.563 67.4605 286.761C67.1153 283.784 69.245 281.091 72.2186 280.746L97.2519 277.834C97.2595 277.819 97.2602 277.796 97.2678 277.781C97.3161 277.562 97.3721 277.344 97.4431 277.133C97.6886 276.297 98.0097 275.492 98.4124 274.727C100.871 275.1 102.821 275.565 103.932 276.117C109.56 278.9 105.092 282.998 98.9178 282.037Z" fill="#EFC43A"/>
<path d="M123.227 270.481C122.008 266.775 119.187 263.637 115.263 262.154C109.851 260.108 103.965 261.813 100.41 265.961L76.8363 257.045C74.0402 255.979 70.908 257.396 69.8503 260.194C69.7165 260.555 69.712 260.926 69.8208 261.26C69.9802 261.754 70.3829 262.167 70.9163 262.364C70.9238 262.364 70.9314 262.371 70.9314 262.371C71.9384 262.748 71.9452 262.279 72.6176 263.384C72.8715 264.144 73.5099 263.88 73.5484 263.828C74.4218 262.381 74.6771 262.482 76.0227 262.992C76.624 263.219 77.0864 263.649 77.3742 264.167C77.6689 264.7 78.1781 265.077 78.7825 265.078C79.0922 265.075 79.4012 265.131 79.7095 265.242C80.0404 265.367 80.3327 265.552 80.5715 265.782C81.049 266.235 81.741 266.441 82.3416 266.169C82.9422 265.913 83.638 265.869 84.2915 266.12C84.9526 266.371 85.4452 266.862 85.724 267.455C85.9952 268.049 86.6487 268.36 87.3067 268.331C87.6391 268.32 87.9784 268.37 88.3093 268.496C88.5193 268.582 88.7074 268.69 88.8865 268.813C89.5256 268.474 90.2977 268.394 91.0268 268.668C91.718 268.934 92.2325 269.456 92.4962 270.086C92.7161 270.596 93.1792 270.965 93.7299 271.048C93.8954 271.08 94.0691 271.12 94.2346 271.183C95.1442 271.528 95.738 272.33 95.877 273.224C95.9669 273.808 96.3152 274.312 96.872 274.523L97.2029 274.649C97.206 280.04 100.476 285.119 105.813 287.142C111.504 289.291 117.742 287.304 121.219 282.663C121.958 281.683 122.569 280.579 123.024 279.368C124.145 276.399 124.142 273.283 123.227 270.481ZM121.484 278.789C121.021 280.008 119.713 280.663 118.478 280.328C118.403 280.305 118.321 280.281 118.237 280.25C117.613 280.022 117.143 279.562 116.871 279.006C116.578 278.405 116.519 277.686 116.778 277.009C117.271 275.708 118.723 275.054 120.024 275.541C121.317 276.035 121.977 277.488 121.484 278.789Z" fill="#FFD63C"/>
<path d="M123.023 279.37C122.568 280.581 121.957 281.684 121.218 282.664C120.636 282.127 119.561 281.22 118.476 280.329C119.711 280.663 121.019 280.008 121.482 278.79C121.975 277.489 121.315 276.036 120.022 275.541C118.722 275.055 117.27 275.708 116.776 277.009C116.517 277.686 116.576 278.405 116.87 279.007C115.875 278.192 115.128 277.592 115.128 277.592C115.128 277.592 110.23 268.241 106.94 266.798C103.642 265.355 102.638 268.728 100.502 268.541C98.366 268.353 82.4666 261.273 77.0776 259.181C73.4248 257.762 71.002 259.809 69.8188 261.26C69.7101 260.926 69.7146 260.555 69.8483 260.194C70.906 257.396 74.0383 255.978 76.8344 257.045L100.408 265.961C103.963 261.812 109.849 260.108 115.261 262.154C117.243 263.036 120.34 266.556 123.226 270.481C124.14 273.283 124.144 276.399 123.023 279.37Z" fill="#EFC43A"/>
<path d="M138.474 260.972L117.096 232.126C116.176 230.888 114.872 230.1 113.47 229.809C111.843 229.469 110.086 229.801 108.643 230.87L96.6531 239.765C93.9741 241.755 93.409 245.543 95.3982 248.224L115.166 274.901L115.181 274.924L116.776 277.07C118.765 279.751 122.551 280.316 125.23 278.326L137.219 269.431C139.898 267.44 140.456 263.653 138.474 260.972ZM130.206 272.345C129.168 273.11 127.713 272.893 126.948 271.863C126.177 270.824 126.393 269.368 127.43 268.603C128.461 267.83 129.924 268.047 130.688 269.085C131.453 270.116 131.237 271.58 130.206 272.345Z" fill="#CBC62A"/>
<path d="M122.4 283.897C120.818 283.876 119.498 283.073 118.681 281.636C116.699 278.147 119.329 273.921 126.089 269.734C127.538 268.837 129.336 268.67 130.826 269.309C132.009 269.816 132.864 270.675 133.296 271.793C133.794 273.079 133.688 274.676 133.005 276.173C132.088 278.185 126.673 283.955 122.4 283.897ZM128.933 271.944C128.511 271.939 128.066 272.066 127.68 272.307C123.986 274.594 120.102 278.018 121.309 280.141C121.67 280.777 122.066 280.868 122.442 280.874C125.054 280.91 129.641 276.268 130.257 274.918C130.598 274.17 130.681 273.41 130.478 272.884C130.342 272.534 130.067 272.274 129.637 272.09C129.419 271.996 129.182 271.948 128.933 271.944Z" fill="#353535"/>
<path d="M115.167 274.901L95.3996 248.224C93.4112 245.543 93.9763 241.756 96.6545 239.765L108.644 230.87C110.086 229.801 111.844 229.469 113.472 229.809C112.931 230.149 100.048 238.526 103.977 249.202C107.898 259.87 114.866 274.277 115.167 274.901Z" fill="#B2AC24"/>
<path d="M113.363 237.942L113.894 238.7L112.865 243.991C112.77 244.457 112.726 244.837 112.733 245.131C112.738 245.438 112.777 245.693 112.853 245.895C112.925 246.11 113.019 246.299 113.134 246.462C113.415 246.864 113.777 247.08 114.221 247.113C114.664 247.145 115.157 246.971 115.699 246.591C116.115 246.299 116.441 245.966 116.676 245.59C116.917 245.222 117.058 244.807 117.1 244.345L118.318 244.472C118.287 245.059 118.092 245.628 117.735 246.177C117.376 246.739 116.895 247.232 116.294 247.653C115.751 248.034 115.217 248.275 114.691 248.378C114.171 248.489 113.688 248.456 113.244 248.28C112.792 248.109 112.41 247.801 112.098 247.355C111.921 247.102 111.78 246.83 111.675 246.538C111.57 246.246 111.514 245.897 111.507 245.492C111.5 245.087 111.552 244.591 111.662 244.004L112.579 239.289L113.151 239.536L108.438 242.841L107.759 241.872L113.363 237.942ZM104.396 244.097C104.946 243.711 105.54 243.422 106.18 243.228C106.812 243.04 107.393 242.976 107.923 243.036L108.027 244.276C107.595 244.213 107.117 244.25 106.592 244.385C106.067 244.521 105.566 244.755 105.091 245.089C104.512 245.495 104.148 245.933 104 246.402C103.851 246.884 103.924 247.337 104.221 247.76C104.507 248.169 104.892 248.386 105.375 248.413C105.857 248.452 106.432 248.237 107.1 247.768L107.724 247.331L108.271 248.111L107.952 252.589L107.484 252.253L111.751 249.261L112.43 250.23L107.282 253.84L106.752 253.082L107.067 248.622L107.889 248.562L107.521 248.82C106.578 249.481 105.724 249.764 104.959 249.669C104.187 249.578 103.572 249.206 103.114 248.553C102.807 248.114 102.634 247.637 102.594 247.122C102.555 246.607 102.679 246.088 102.966 245.565C103.251 245.055 103.728 244.566 104.396 244.097Z" fill="#F0F0F0"/>
<path d="M112.295 285.934C112.29 286.299 111.99 286.592 111.625 286.587C111.26 286.581 110.967 286.281 110.973 285.916C110.978 285.551 111.278 285.258 111.643 285.264C112.008 285.268 112.3 285.568 112.295 285.934Z" fill="#F0F0F0"/>
<path d="M118.451 288.276C118.446 288.641 118.147 288.933 117.781 288.928C117.415 288.923 117.124 288.623 117.129 288.257C117.134 287.892 117.433 287.6 117.799 287.605C118.164 287.61 118.456 287.91 118.451 288.276Z" fill="#F0F0F0"/>
<path d="M125.748 322.721C125.748 323.666 125.65 324.566 125.477 325.412C124.781 328.769 122.817 331.196 120.513 331.196C118.201 331.196 116.237 328.769 115.549 325.412C115.368 324.566 115.277 323.666 115.277 322.721C115.277 322.32 115.292 321.927 115.338 321.542C115.685 317.422 117.869 314.239 120.513 314.239C123.15 314.239 125.341 317.422 125.688 321.542C125.733 321.927 125.748 322.32 125.748 322.721Z" fill="#353535"/>
<path d="M211.03 322.57C211.03 323.568 210.924 324.528 210.728 325.413C210.01 328.694 208.068 331.045 205.794 331.045C203.52 331.045 201.586 328.694 200.876 325.413C200.672 324.528 200.566 323.568 200.566 322.57C200.566 322.222 200.582 321.882 200.612 321.542C200.914 317.346 203.12 314.095 205.794 314.095C208.476 314.095 210.682 317.346 210.985 321.542C211.015 321.882 211.03 322.222 211.03 322.57Z" fill="#353535"/>
<path d="M213.235 208.142V322.57H112.814V208.142C112.814 198.14 120.249 189.892 129.881 188.607C130.742 188.486 131.626 188.426 132.518 188.426H193.539C204.418 188.426 213.235 197.248 213.235 208.142Z" fill="#F44E1A"/>
<path d="M201.805 226.603V291.105C201.805 298.204 196.056 303.957 188.962 303.957H137.089C129.995 303.957 124.246 298.204 124.246 291.105V226.603C124.246 220.865 128.001 216.004 133.191 214.356V214.349C134.423 213.963 135.73 213.751 137.089 213.751H188.962C196.056 213.751 201.805 219.505 201.805 226.603Z" fill="#353535"/>
<path d="M136.069 188.425H141.154V139.574C141.154 135.504 144.463 132.193 148.53 132.193H177.523C181.591 132.193 184.9 135.504 184.9 139.574V188.425H189.985C190.114 188.425 190.24 188.433 190.368 188.435V139.574C190.368 132.487 184.606 126.721 177.523 126.721H148.53C141.448 126.721 135.686 132.487 135.686 139.574V188.435C135.814 188.433 135.94 188.425 136.069 188.425Z" fill="#353535"/>
<path d="M137.07 139.575C137.07 132.488 142.833 126.722 149.915 126.722H148.53C141.448 126.722 135.686 132.488 135.686 139.575V188.435C135.813 188.433 135.94 188.426 136.069 188.426H137.071L137.07 139.575Z" fill="#2D2C2C"/>
<path d="M178.908 132.193H177.523C181.591 132.193 184.9 135.505 184.9 139.575V188.426H186.285V139.575C186.285 135.505 182.976 132.193 178.908 132.193Z" fill="#2D2C2C"/>
<path d="M189.984 188.425C190.113 188.425 190.239 188.433 190.368 188.435V188.425H189.984Z" fill="#2D2C2C"/>
<path d="M179.214 129.155V130.675C179.214 132.633 177.884 134.273 176.079 134.742C175.739 134.84 175.376 134.885 175.006 134.885H152.741C150.414 134.885 148.533 133.003 148.533 130.675V129.155C148.533 126.827 150.414 124.937 152.741 124.937H175.006C177.333 124.937 179.214 126.827 179.214 129.155Z" fill="#F44E1A"/>
<path d="M156.542 322.57H112.814V208.142C112.814 198.14 120.249 189.892 129.881 188.607C129.881 188.607 111.575 193.143 117.491 254.069C123.406 315.002 112.83 316.62 146.328 320.491C151.586 321.096 154.827 321.806 156.542 322.57Z" fill="#E23610"/>
<path d="M162.293 303.957H137.089C129.995 303.957 124.246 298.204 124.246 291.105V226.603C124.246 220.865 128.001 216.004 133.191 214.356C133.191 214.356 114.863 302.082 151.247 303.02C156.838 303.164 160.351 303.496 162.293 303.957Z" fill="#2D2C2C"/>
<path d="M201.807 235.733H124.246V239.566H201.807V235.733Z" fill="#2D2C2C"/>
<path d="M135.573 240.661H129.866C128.458 240.661 127.316 239.518 127.316 238.109V237.189C127.316 235.78 128.458 234.637 129.866 234.637H135.573C136.981 234.637 138.123 235.78 138.123 237.189V238.109C138.123 239.518 136.981 240.661 135.573 240.661Z" fill="#2D2C2C"/>
<path d="M135.442 257.224H130.545C129.075 257.224 127.961 255.895 128.216 254.447L130.665 240.562C130.864 239.432 131.846 238.608 132.993 238.608C134.141 238.608 135.122 239.432 135.322 240.562L137.77 254.447C138.026 255.895 136.912 257.224 135.442 257.224Z" fill="#2D2C2C"/>
<path d="M201.807 234.008H124.246V237.84H201.807V234.008Z" fill="#FCEA9E"/>
<path d="M138.124 235.464V236.386C138.124 237.792 136.983 238.934 135.57 238.934H129.866C128.461 238.934 127.32 237.792 127.32 236.386V235.464C127.32 234.058 128.461 232.916 129.866 232.916H135.57C136.983 232.916 138.124 234.058 138.124 235.464Z" fill="#FFD63C"/>
<path d="M125.748 322.721C125.748 323.666 125.65 324.566 125.477 325.412H115.549C115.368 324.566 115.277 323.666 115.277 322.721C115.277 322.32 115.292 321.927 115.338 321.542H125.688C125.733 321.927 125.748 322.32 125.748 322.721Z" fill="#2D2C2C"/>
<path d="M211.03 322.57C211.03 323.568 210.924 324.528 210.728 325.412H200.876C200.672 324.528 200.566 323.568 200.566 322.57C200.566 322.222 200.582 321.882 200.612 321.542H210.985C211.015 321.882 211.03 322.222 211.03 322.57Z" fill="#2D2C2C"/>
<path d="M214.887 320.489H111.447V324.356H214.887V320.489Z" fill="#353535"/>
<path d="M130.78 238.934H129.866C128.461 238.934 127.32 237.792 127.32 236.386V235.464C127.32 234.058 128.461 232.916 129.866 232.916C129.866 232.916 128.068 236.794 130.667 238.836C130.705 238.866 130.743 238.896 130.78 238.934Z" fill="#EFC43A"/>
<path d="M137.766 252.723L135.318 238.836C135.122 237.709 134.14 236.885 132.991 236.885C131.843 236.885 130.861 237.709 130.665 238.836L128.217 252.723C127.96 254.167 129.07 255.498 130.544 255.498H135.439C136.912 255.498 138.023 254.167 137.766 252.723ZM133.838 253.51H132.138C131.692 253.51 131.322 253.147 131.322 252.693C131.322 252.24 131.692 251.877 132.138 251.877H133.838C134.291 251.877 134.661 252.24 134.661 252.693C134.661 253.147 134.291 253.51 133.838 253.51Z" fill="#FFD63C"/>
<path d="M132.72 255.498H130.544C129.07 255.498 127.96 254.167 128.217 252.723L130.665 238.836C130.861 237.709 131.843 236.885 132.991 236.885C132.991 236.885 130.083 247.605 130.393 251.408C130.71 255.211 131.7 255.09 132.72 255.498Z" fill="#EFC43A"/>
<path d="M176.079 134.742C175.739 134.84 175.376 134.885 175.006 134.885H152.741C150.414 134.885 148.533 133.003 148.533 130.675V129.155C148.533 126.827 150.414 124.937 152.741 124.937C152.741 124.937 147.959 131.922 159.042 132.927C167.557 133.706 173.691 134.447 176.079 134.742Z" fill="#E23610"/>
<path d="M136.063 234.628C136.35 234.628 136.583 234.395 136.583 234.108C136.583 233.821 136.35 233.588 136.063 233.588C135.776 233.588 135.543 233.821 135.543 234.108C135.543 234.395 135.776 234.628 136.063 234.628Z" fill="#F0F0F0"/>
<path d="M134.779 238.737C134.779 239.011 134.557 239.233 134.283 239.233C134.009 239.233 133.787 239.011 133.787 238.737C133.787 238.463 134.009 238.241 134.283 238.241C134.557 238.241 134.779 238.463 134.779 238.737Z" fill="#F0F0F0"/>
<path d="M135.3 242.838C135.096 242.877 134.898 242.742 134.859 242.537L134.385 240.014C134.347 239.809 134.482 239.611 134.687 239.572C134.892 239.534 135.09 239.669 135.128 239.874L135.602 242.397C135.64 242.602 135.506 242.8 135.3 242.838Z" fill="#F0F0F0"/>
<path opacity="0.1" d="M213.238 320.491V208.142C213.238 198.17 205.849 189.93 196.247 188.615V191.336H199.39V213.351H193.104V188.426H190.369V142.257H184.907V188.426H171.066V242.495H193.104V217.214H199.39V242.502H196.783V249.639H199.39V295.082H196.141V302.219H199.39V324.354H200.704C200.75 324.717 200.803 325.073 200.878 325.413C201.588 328.694 203.522 331.045 205.796 331.045C208.071 331.045 210.012 328.694 210.73 325.413C210.805 325.073 210.851 324.717 210.904 324.354H214.893V320.491H213.238Z" fill="#353535"/>
<path opacity="0.1" d="M213.238 320.491V208.142C213.238 198.17 205.849 189.93 196.247 188.615V191.336H199.39V213.351H193.104V188.426H190.369V142.257H184.907V188.426H171.066V242.495H193.104V217.214H199.39V242.502H196.783V249.639H199.39V295.082H196.141V302.219H199.39V324.354H200.704C200.75 324.717 200.803 325.073 200.878 325.413C201.588 328.694 203.522 331.045 205.796 331.045C208.071 331.045 210.012 328.694 210.73 325.413C210.805 325.073 210.851 324.717 210.904 324.354H214.893V320.491H213.238Z" fill="#353535"/>
<path d="M317.569 141.778H302.41V174.794H317.569V141.778Z" fill="#91EDD8"/>
<path d="M330.895 124.725H202.869V334.417H330.895V124.725Z" fill="#FFD63C"/>
<path d="M196.522 138.184H174.234V267.453H196.522V138.184Z" fill="#FEB02A"/>
<path d="M202.87 161.459H196.584V165.322H202.87V161.459Z" fill="#FEB02A"/>
<path d="M202.87 209.646H196.584V213.509H202.87V209.646Z" fill="#FEB02A"/>
<path d="M330.895 123.833H202.869C202.869 115.524 209.593 108.796 217.896 108.796H240.44C241.807 98.3404 249.234 89.7901 259.078 86.7887C261.548 86.0252 264.17 85.6169 266.882 85.6169C280.436 85.6169 291.617 95.7171 293.332 108.796H315.868C320.016 108.796 323.771 110.482 326.491 113.196C329.21 115.917 330.895 119.675 330.895 123.833Z" fill="#FFD63C"/>
<path d="M272.607 119.844C280.427 116.649 284.178 107.715 280.985 99.8894C277.792 92.0638 268.864 88.3099 261.044 91.505C253.224 94.7 249.473 103.634 252.666 111.46C255.859 119.285 264.787 123.039 272.607 119.844Z" fill="#FEB02A"/>
<path d="M266.827 90.3701C263.601 90.3701 260.612 91.3756 258.145 93.0819C259.972 92.3093 261.982 91.8821 264.091 91.8821C272.538 91.8821 279.386 98.7345 279.386 107.187C279.386 112.411 276.766 117.018 272.774 119.779C278.267 117.458 282.122 112.017 282.122 105.675C282.122 97.2225 275.275 90.3701 266.827 90.3701Z" fill="#F7A52D"/>
<path d="M261.304 110.962V109.275L268.258 100.891L268.58 101.839H261.432V99.7184H270.893V101.405L263.954 109.789L263.633 108.842H271.133V110.962H261.304Z" fill="#FFD63C"/>
<path d="M229.243 140.336H214.08V173.358H229.243V140.336Z" fill="#91EDD8"/>
<path d="M251.532 140.34H236.373V173.356H251.532V140.34Z" fill="#91EDD8"/>
<path d="M273.825 140.34H258.666V173.356H273.825V140.34Z" fill="#91EDD8"/>
<path d="M296.12 140.34H280.961V173.356H296.12V140.34Z" fill="#91EDD8"/>
<path d="M318.413 140.34H303.254V173.356H318.413V140.34Z" fill="#91EDD8"/>
<path d="M229.239 196.704H214.08V229.72H229.239V196.704Z" fill="#91EDD8"/>
<path d="M251.532 196.704H236.373V229.72H251.532V196.704Z" fill="#91EDD8"/>
<path d="M273.825 196.704H258.666V229.72H273.825V196.704Z" fill="#91EDD8"/>
<path d="M296.12 196.704H280.961V229.72H296.12V196.704Z" fill="#91EDD8"/>
<path d="M318.413 196.704H303.254V229.72H318.413V196.704Z" fill="#91EDD8"/>
<path d="M229.239 252.177H214.08V285.193H229.239V252.177Z" fill="#91EDD8"/>
<path d="M251.532 252.177H236.373V285.193H251.532V252.177Z" fill="#91EDD8"/>
<path d="M273.825 252.177H258.666V285.193H273.825V252.177Z" fill="#91EDD8"/>
<path d="M296.12 252.177H280.961V285.193H296.12V252.177Z" fill="#91EDD8"/>
<path d="M318.413 252.177H303.254V285.193H318.413V252.177Z" fill="#91EDD8"/>
<path d="M332.979 180.494H199.727V187.633H332.979V180.494Z" fill="#FEB02A"/>
<path d="M333.51 238.792H200.258V245.931H333.51V238.792Z" fill="#FEB02A"/>
<path d="M332.874 291.372H199.621V298.511H332.874V291.372Z" fill="#FEB02A"/>
<path d="M330.897 130.97H202.869V133.434H330.897V130.97Z" fill="#FEC230"/>
<path d="M330.897 187.442H202.869V189.906H330.897V187.442Z" fill="#FEC230"/>
<path d="M330.897 245.98H202.869V248.444H330.897V245.98Z" fill="#FEC230"/>
<path d="M330.897 298.373H202.869V300.837H330.897V298.373Z" fill="#FEC230"/>
<path d="M285.783 294.711H242.318V334.416H285.783V294.711Z" fill="#91EDD8"/>
<path d="M214.082 140.34V141.778H228.399V173.355H229.242V140.34H214.082Z" fill="#87DDC6"/>
<path d="M224.931 147.777L214.082 163.064V161.431L224.16 147.225L224.931 147.777Z" fill="#87DDC6"/>
<path d="M222.423 158.958L214.082 170.714V169.08L221.652 158.413L222.423 158.958Z" fill="#87DDC6"/>
<path opacity="0.7" d="M224.931 147.352L214.082 162.638V161.005L224.16 146.8L224.931 147.352Z" fill="#F0F0F0"/>
<path opacity="0.7" d="M222.423 158.533L214.082 170.289V168.656L221.652 157.989L222.423 158.533Z" fill="#F0F0F0"/>
<path d="M236.377 140.34V141.778H250.694V173.355H251.537V140.34H236.377Z" fill="#87DDC6"/>
<path d="M247.226 147.777L236.377 163.064V161.431L246.455 147.225L247.226 147.777Z" fill="#87DDC6"/>
<path d="M244.718 158.958L236.377 170.714V169.08L243.947 158.413L244.718 158.958Z" fill="#87DDC6"/>
<path opacity="0.7" d="M247.226 147.352L236.377 162.638V161.005L246.455 146.8L247.226 147.352Z" fill="#F0F0F0"/>
<path opacity="0.7" d="M244.718 158.533L236.377 170.289V168.656L243.947 157.989L244.718 158.533Z" fill="#F0F0F0"/>
<path d="M258.668 140.34V141.778H272.985V173.355H273.828V140.34H258.668Z" fill="#87DDC6"/>
<path d="M269.517 147.777L258.668 163.063V161.43L268.746 147.224L269.517 147.777Z" fill="#87DDC6"/>
<path d="M267.009 158.958L258.668 170.714V169.08L266.238 158.413L267.009 158.958Z" fill="#87DDC6"/>
<path opacity="0.7" d="M269.517 147.352L258.668 162.638V161.005L268.746 146.8L269.517 147.352Z" fill="#F0F0F0"/>
<path opacity="0.7" d="M267.009 158.533L258.668 170.289V168.656L266.238 157.989L267.009 158.533Z" fill="#F0F0F0"/>
<path d="M280.961 140.34V141.778H295.278V173.355H296.121V140.34H280.961Z" fill="#87DDC6"/>
<path d="M291.81 147.777L280.961 163.064V161.431L291.039 147.225L291.81 147.777Z" fill="#87DDC6"/>
<path d="M289.302 158.958L280.961 170.714V169.08L288.531 158.413L289.302 158.958Z" fill="#87DDC6"/>
<path opacity="0.7" d="M291.81 147.352L280.961 162.638V161.005L291.039 146.8L291.81 147.352Z" fill="#F0F0F0"/>
<path opacity="0.7" d="M289.302 158.533L280.961 170.289V168.656L288.531 157.989L289.302 158.533Z" fill="#F0F0F0"/>
<path d="M303.254 140.34V141.778H317.57V173.355H318.413V140.34H303.254Z" fill="#87DDC6"/>
<path d="M314.103 147.777L303.254 163.064V161.431L313.332 147.225L314.103 147.777Z" fill="#87DDC6"/>
<path d="M311.595 158.958L303.254 170.714V169.08L310.824 158.413L311.595 158.958Z" fill="#87DDC6"/>
<path opacity="0.7" d="M314.103 147.352L303.254 162.638V161.005L313.332 146.8L314.103 147.352Z" fill="#F0F0F0"/>
<path opacity="0.7" d="M311.595 158.533L303.254 170.289V168.656L310.824 157.989L311.595 158.533Z" fill="#F0F0F0"/>
<path d="M214.084 196.704V198.142H228.4V229.72H229.243V196.704H214.084Z" fill="#87DDC6"/>
<path d="M224.931 204.142L214.082 219.428V217.795L224.16 203.59L224.931 204.142Z" fill="#87DDC6"/>
<path d="M222.423 215.323L214.082 227.079V225.446L221.652 214.779L222.423 215.323Z" fill="#87DDC6"/>
<path opacity="0.7" d="M224.931 203.717L214.082 219.003V217.371L224.16 203.165L224.931 203.717Z" fill="#F0F0F0"/>
<path opacity="0.7" d="M222.423 214.898L214.082 226.654V225.021L221.652 214.354L222.423 214.898Z" fill="#F0F0F0"/>
<path d="M236.377 196.704V198.142H250.694V229.72H251.537V196.704H236.377Z" fill="#87DDC6"/>
<path d="M247.226 204.142L236.377 219.428V217.795L246.455 203.59L247.226 204.142Z" fill="#87DDC6"/>
<path d="M244.718 215.323L236.377 227.079V225.446L243.947 214.779L244.718 215.323Z" fill="#87DDC6"/>
<path opacity="0.7" d="M247.226 203.717L236.377 219.003V217.371L246.455 203.165L247.226 203.717Z" fill="#F0F0F0"/>
<path opacity="0.7" d="M244.718 214.898L236.377 226.654V225.021L243.947 214.354L244.718 214.898Z" fill="#F0F0F0"/>
<path d="M258.668 196.704V198.142H272.985V229.72H273.828V196.704H258.668Z" fill="#87DDC6"/>
<path d="M269.517 204.142L258.668 219.428V217.795L268.746 203.59L269.517 204.142Z" fill="#87DDC6"/>
<path d="M267.009 215.323L258.668 227.079V225.446L266.238 214.779L267.009 215.323Z" fill="#87DDC6"/>
<path opacity="0.7" d="M269.517 203.717L258.668 219.003V217.37L268.746 203.165L269.517 203.717Z" fill="#F0F0F0"/>
<path opacity="0.7" d="M267.009 214.898L258.668 226.654V225.021L266.238 214.354L267.009 214.898Z" fill="#F0F0F0"/>
<path d="M280.961 196.704V198.142H295.278V229.72H296.121V196.704H280.961Z" fill="#87DDC6"/>
<path d="M291.81 204.142L280.961 219.428V217.795L291.039 203.59L291.81 204.142Z" fill="#87DDC6"/>
<path d="M289.302 215.323L280.961 227.079V225.446L288.531 214.779L289.302 215.323Z" fill="#87DDC6"/>
<path opacity="0.7" d="M291.81 203.717L280.961 219.003V217.371L291.039 203.165L291.81 203.717Z" fill="#F0F0F0"/>
<path opacity="0.7" d="M289.302 214.898L280.961 226.654V225.021L288.531 214.354L289.302 214.898Z" fill="#F0F0F0"/>
<path d="M303.254 196.704V198.142H317.57V229.72H318.413V196.704H303.254Z" fill="#87DDC6"/>
<path d="M314.103 204.142L303.254 219.428V217.795L313.332 203.59L314.103 204.142Z" fill="#87DDC6"/>
<path d="M311.595 215.323L303.254 227.079V225.446L310.824 214.779L311.595 215.323Z" fill="#87DDC6"/>
<path opacity="0.7" d="M314.103 203.717L303.254 219.003V217.371L313.332 203.165L314.103 203.717Z" fill="#F0F0F0"/>
<path opacity="0.7" d="M311.595 214.898L303.254 226.654V225.021L310.824 214.354L311.595 214.898Z" fill="#F0F0F0"/>
<path d="M214.084 252.177V253.615H228.4V285.193H229.243V252.177H214.084Z" fill="#87DDC6"/>
<path d="M224.931 259.614L214.082 274.9V273.268L224.16 259.062L224.931 259.614Z" fill="#87DDC6"/>
<path d="M222.423 270.796L214.082 282.551V280.918L221.652 270.251L222.423 270.796Z" fill="#87DDC6"/>
<path opacity="0.7" d="M224.931 259.19L214.082 274.476V272.843L224.16 258.638L224.931 259.19Z" fill="#F0F0F0"/>
<path opacity="0.7" d="M222.423 270.37L214.082 282.126V280.493L221.652 269.826L222.423 270.37Z" fill="#F0F0F0"/>
<path d="M236.377 252.177V253.615H250.694V285.193H251.537V252.177H236.377Z" fill="#87DDC6"/>
<path d="M247.226 259.614L236.377 274.9V273.268L246.455 259.062L247.226 259.614Z" fill="#87DDC6"/>
<path d="M244.718 270.796L236.377 282.551V280.918L243.947 270.251L244.718 270.796Z" fill="#87DDC6"/>
<path opacity="0.7" d="M247.226 259.19L236.377 274.476V272.843L246.455 258.638L247.226 259.19Z" fill="#F0F0F0"/>
<path opacity="0.7" d="M244.718 270.37L236.377 282.126V280.493L243.947 269.826L244.718 270.37Z" fill="#F0F0F0"/>
<path d="M242.338 296.06V297.731H262.847V334.416H264.055V296.06H242.338Z" fill="#87DDC6"/>
<path d="M257.878 304.7L242.336 322.459V320.562L256.774 304.059L257.878 304.7Z" fill="#87DDC6"/>
<path d="M254.285 317.69L242.336 331.347V329.45L253.181 317.057L254.285 317.69Z" fill="#87DDC6"/>
<path opacity="0.7" d="M257.878 304.206L242.336 321.965V320.068L256.774 303.565L257.878 304.206Z" fill="#F0F0F0"/>
<path opacity="0.7" d="M254.285 317.196L242.336 330.853V328.956L253.181 316.563L254.285 317.196Z" fill="#F0F0F0"/>
<path d="M264.496 296.116V297.787H284.603V334.472H285.787V296.116H264.496Z" fill="#87DDC6"/>
<path d="M279.731 304.757L264.494 322.515V320.618L278.649 304.115L279.731 304.757Z" fill="#87DDC6"/>
<path d="M276.209 317.746L264.494 331.403V329.506L275.126 317.114L276.209 317.746Z" fill="#87DDC6"/>
<path opacity="0.7" d="M279.731 304.263L264.494 322.021V320.124L278.649 303.622L279.731 304.263Z" fill="#F0F0F0"/>
<path opacity="0.7" d="M276.209 317.252L264.494 330.91V329.012L275.126 316.62L276.209 317.252Z" fill="#F0F0F0"/>
<path d="M258.668 252.177V253.615H272.985V285.193H273.828V252.177H258.668Z" fill="#87DDC6"/>
<path d="M269.517 259.614L258.668 274.9V273.268L268.746 259.062L269.517 259.614Z" fill="#87DDC6"/>
<path d="M267.009 270.796L258.668 282.551V280.918L266.238 270.251L267.009 270.796Z" fill="#87DDC6"/>
<path opacity="0.7" d="M269.517 259.19L258.668 274.476V272.843L268.746 258.638L269.517 259.19Z" fill="#F0F0F0"/>
<path opacity="0.7" d="M267.009 270.37L258.668 282.126V280.493L266.238 269.826L267.009 270.37Z" fill="#F0F0F0"/>
<path d="M280.961 252.177V253.615H295.278V285.193H296.121V252.177H280.961Z" fill="#87DDC6"/>
<path d="M291.81 259.614L280.961 274.9V273.268L291.039 259.062L291.81 259.614Z" fill="#87DDC6"/>
<path d="M289.302 270.796L280.961 282.551V280.918L288.531 270.251L289.302 270.796Z" fill="#87DDC6"/>
<path opacity="0.7" d="M291.81 259.19L280.961 274.476V272.843L291.039 258.638L291.81 259.19Z" fill="#F0F0F0"/>
<path opacity="0.7" d="M289.302 270.37L280.961 282.126V280.493L288.531 269.826L289.302 270.37Z" fill="#F0F0F0"/>
<path d="M303.254 252.177V253.615H317.57V285.193H318.413V252.177H303.254Z" fill="#87DDC6"/>
<path d="M314.103 259.614L303.254 274.9V273.268L313.332 259.062L314.103 259.614Z" fill="#87DDC6"/>
<path d="M311.595 270.796L303.254 282.551V280.918L310.824 270.251L311.595 270.796Z" fill="#87DDC6"/>
<path opacity="0.7" d="M314.103 259.19L303.254 274.476V272.843L313.332 258.638L314.103 259.19Z" fill="#F0F0F0"/>
<path opacity="0.7" d="M311.595 270.37L303.254 282.126V280.493L310.824 269.826L311.595 270.37Z" fill="#F0F0F0"/>
<path d="M264.051 274.343C252.048 274.343 242.318 284.08 242.318 296.09H285.783C285.783 284.08 276.053 274.343 264.051 274.343Z" fill="#FEB02A"/>
<path d="M244.716 111.026C244.716 111.026 209.789 111.329 208.278 123.833H202.869C202.869 115.524 209.593 108.796 217.896 108.796H240.44C241.807 98.3405 249.234 89.7901 259.078 86.7888C254.779 90.0699 243.424 99.8752 244.716 111.026Z" fill="#FEC230"/>
<path d="M208.15 130.97C208.15 130.97 202.869 131.544 202.869 180.495V130.44L208.15 130.97Z" fill="#FEC230"/>
<path d="M208.15 187.897C208.15 187.897 202.869 188.472 202.869 237.423V187.368L208.15 187.897Z" fill="#FEC230"/>
<path d="M208.15 246.51C208.15 246.51 202.869 247.084 202.869 296.035V245.98L208.15 246.51Z" fill="#FEC230"/>
<path d="M208.15 299.384C208.15 299.384 202.869 299.786 202.869 334.026V299.013L208.15 299.384Z" fill="#FEC230"/>
<path d="M291.181 299.56C291.181 299.56 285.9 299.962 285.9 334.203V299.19L291.181 299.56Z" fill="#FEC230"/>
<path d="M237.039 299.56C237.039 299.56 242.32 299.962 242.32 334.203V299.19L237.039 299.56Z" fill="#FEC230"/>
<path d="M332.979 123.832H199.727V130.971H332.979V123.832Z" fill="#FEB02A"/>
<path d="M264.051 296.06V334.416" stroke="#191919" stroke-width="0.756" stroke-miterlimit="10"/>
<path d="M182.258 267.453H174.234V138.184H174.701C174.701 138.184 173.691 266.653 182.258 267.453Z" fill="#F2A02A"/>
<path d="M190.019 146.212V155.627H187.566V146.212H190.019ZM183.971 146.212V155.627H181.518V146.212H183.971ZM188.878 149.935V151.832H182.716V149.935H188.878Z" fill="#A64E1B"/>
<path d="M186.631 167.806C187.582 167.806 188.399 168.001 189.084 168.391C189.778 168.771 190.311 169.323 190.682 170.046C191.053 170.768 191.238 171.638 191.238 172.656C191.238 173.673 191.053 174.543 190.682 175.266C190.311 175.989 189.778 176.545 189.084 176.935C188.399 177.315 187.582 177.506 186.631 177.506C185.68 177.506 184.857 177.315 184.163 176.935C183.469 176.545 182.936 175.989 182.565 175.266C182.195 174.543 182.009 173.673 182.009 172.656C182.009 171.638 182.195 170.768 182.565 170.046C182.936 169.323 183.469 168.771 184.163 168.391C184.857 168.001 185.68 167.806 186.631 167.806ZM186.631 169.732C186.174 169.732 185.789 169.841 185.475 170.06C185.161 170.279 184.924 170.607 184.762 171.044C184.6 171.472 184.52 172.009 184.52 172.656C184.52 173.293 184.6 173.83 184.762 174.268C184.924 174.705 185.161 175.033 185.475 175.252C185.789 175.471 186.174 175.58 186.631 175.58C187.087 175.58 187.467 175.471 187.772 175.252C188.086 175.033 188.323 174.705 188.485 174.268C188.647 173.83 188.727 173.293 188.727 172.656C188.727 172.009 188.647 171.472 188.485 171.044C188.323 170.607 188.086 170.279 187.772 170.06C187.467 169.841 187.087 169.732 186.631 169.732Z" fill="#A64E1B"/>
<path d="M186.089 189.202C186.963 189.202 187.734 189.34 188.399 189.616C189.075 189.882 189.659 190.277 190.154 190.8L188.97 192.383C188.561 191.955 188.119 191.637 187.643 191.428C187.177 191.209 186.645 191.099 186.046 191.099C185.694 191.099 185.409 191.137 185.19 191.214C184.971 191.29 184.814 191.394 184.719 191.527C184.624 191.66 184.577 191.813 184.577 191.984C184.577 192.184 184.667 192.355 184.848 192.497C185.038 192.63 185.342 192.745 185.761 192.84L187.344 193.196C188.285 193.415 188.975 193.734 189.412 194.152C189.85 194.57 190.068 195.127 190.068 195.821C190.068 196.487 189.897 197.052 189.555 197.518C189.212 197.975 188.742 198.322 188.143 198.56C187.544 198.788 186.859 198.902 186.089 198.902C185.461 198.902 184.862 198.835 184.291 198.702C183.721 198.56 183.207 198.36 182.751 198.103C182.294 197.846 181.909 197.552 181.595 197.219L182.779 195.578C183.017 195.854 183.307 196.101 183.649 196.32C184.001 196.529 184.382 196.696 184.791 196.819C185.209 196.943 185.632 197.005 186.06 197.005C186.393 197.005 186.669 196.972 186.887 196.905C187.116 196.838 187.282 196.739 187.387 196.605C187.491 196.472 187.544 196.315 187.544 196.135C187.544 195.935 187.472 195.769 187.33 195.635C187.187 195.493 186.916 195.374 186.517 195.279L184.776 194.894C184.244 194.77 183.768 194.608 183.35 194.409C182.941 194.2 182.618 193.924 182.38 193.581C182.142 193.23 182.023 192.792 182.023 192.269C182.023 191.68 182.185 191.156 182.508 190.7C182.832 190.234 183.298 189.868 183.906 189.602C184.515 189.335 185.242 189.202 186.089 189.202Z" fill="#A64E1B"/>
<path d="M190.325 210.741V212.638H187.258V220.156H184.805V212.638H181.724V210.741H190.325Z" fill="#A64E1B"/>
<path d="M182.408 241.552V232.137H189.74V234.035H184.862V235.946H188.742V237.729H184.862V239.655H189.926V241.552H182.408Z" fill="#A64E1B"/>
<path d="M184.862 261.051H189.583V262.948H182.408V253.534H184.862V261.051Z" fill="#A64E1B"/>
<path d="M197.967 161.459H196.584V165.322H197.967V161.459Z" fill="#F2A02A"/>
<path d="M197.967 209.646H196.584V213.509H197.967V209.646Z" fill="#F2A02A"/>
<path d="M350.562 211.491C350.562 211.491 366.05 234.549 372.472 242.298C378.893 250.047 377.382 285.091 381.349 299.605C385.315 314.118 383.426 358.155 385.315 361.746H359.628L355.473 254.076L339.041 235.872L350.562 211.491Z" fill="#FEA94E"/>
<path d="M351.129 303.156H283.512C281.113 303.156 279.168 301.21 279.168 298.809V172.935C279.168 170.534 281.113 168.588 283.512 168.588H351.129C353.528 168.588 355.473 170.534 355.473 172.935V298.809C355.473 301.21 353.528 303.156 351.129 303.156Z" fill="#353535"/>
<path d="M349.543 299.605H285.096C282.697 299.605 280.752 297.659 280.752 295.258V174.974C280.752 172.573 282.697 170.627 285.096 170.627H349.543C351.942 170.627 353.887 172.573 353.887 174.974V295.257C353.887 297.658 351.942 299.605 349.543 299.605Z" fill="#729DC7"/>
<path opacity="0.1" d="M350.65 296.09H286.203C283.803 296.09 281.859 294.144 281.859 291.743V172.083C281.173 172.852 280.752 173.863 280.752 174.974V295.257C280.752 297.658 282.697 299.604 285.096 299.604H349.543C351.942 299.604 353.887 297.658 353.887 295.257V294.634C353.091 295.526 351.938 296.09 350.65 296.09Z" fill="#605D88"/>
<path d="M332.369 174.793H302.275C301.093 174.793 300.135 173.835 300.135 172.651V171.612C300.135 170.429 301.093 169.47 302.275 169.47H332.369C333.551 169.47 334.509 170.429 334.509 171.612V172.651C334.509 173.835 333.55 174.793 332.369 174.793Z" fill="#353535"/>
<path d="M341.309 190.134H295.413C293.744 190.134 292.391 188.78 292.391 187.11C292.391 185.44 293.744 184.086 295.413 184.086H341.309C342.978 184.086 344.331 185.44 344.331 187.11C344.331 188.78 342.978 190.134 341.309 190.134Z" fill="#F0F0F0"/>
<path d="M322.798 198.072H288.234V238.639H322.798V198.072Z" fill="#C8C626" stroke="#353535" stroke-width="0.756" stroke-miterlimit="10"/>
<path d="M348.201 202.986H327.802C327.229 202.986 326.764 202.521 326.764 201.947C326.764 201.373 327.229 200.907 327.802 200.907H348.201C348.774 200.907 349.24 201.373 349.24 201.947C349.24 202.521 348.774 202.986 348.201 202.986Z" fill="#FCEA9E"/>
<path d="M348.201 207.144H327.802C327.229 207.144 326.764 206.678 326.764 206.104C326.764 205.531 327.229 205.065 327.802 205.065H348.201C348.774 205.065 349.24 205.531 349.24 206.104C349.24 206.678 348.774 207.144 348.201 207.144Z" fill="#FCEA9E"/>
<path d="M343.479 211.491H327.802C327.229 211.491 326.764 211.025 326.764 210.452C326.764 209.878 327.229 209.412 327.802 209.412H343.479C344.052 209.412 344.518 209.878 344.518 210.452C344.518 211.025 344.052 211.491 343.479 211.491Z" fill="#FCEA9E"/>
<path d="M348.201 223.515H327.802C327.229 223.515 326.764 223.049 326.764 222.476C326.764 221.902 327.229 221.436 327.802 221.436H348.201C348.774 221.436 349.24 221.902 349.24 222.476C349.24 223.049 348.774 223.515 348.201 223.515Z" fill="#FCEA9E"/>
<path d="M343.479 227.862H327.802C327.229 227.862 326.764 227.397 326.764 226.823C326.764 226.249 327.229 225.783 327.802 225.783H343.479C344.052 225.783 344.518 226.249 344.518 226.823C344.518 227.397 344.052 227.862 343.479 227.862Z" fill="#FCEA9E"/>
<path d="M337.341 216.972H327.802C327.229 216.972 326.764 216.506 326.764 215.933C326.764 215.359 327.229 214.893 327.802 214.893H337.341C337.914 214.893 338.379 215.359 338.379 215.933C338.379 216.506 337.914 216.972 337.341 216.972Z" fill="#FCEA9E"/>
<path d="M346.534 247.212H289.745C288.911 247.212 288.234 246.535 288.234 245.7C288.234 244.865 288.911 244.188 289.745 244.188H346.534C347.368 244.188 348.045 244.865 348.045 245.7C348.045 246.535 347.368 247.212 346.534 247.212Z" fill="#FCEA9E"/>
<path d="M337.591 285.432H295.787C293.423 285.432 291.506 283.514 291.506 281.147V278.628C291.506 276.261 293.423 274.343 295.787 274.343H337.591C339.956 274.343 341.872 276.261 341.872 278.628V281.147C341.872 283.513 339.956 285.432 337.591 285.432Z" fill="#605D88"/>
<path d="M338.224 285.012H296.42C294.055 285.012 292.139 283.094 292.139 280.728V278.208C292.139 275.842 294.055 273.924 296.42 273.924H338.224C340.589 273.924 342.505 275.842 342.505 278.208V280.728C342.504 283.094 340.588 285.012 338.224 285.012Z" fill="#CBC62A"/>
<path d="M299.574 254.077L301.674 258.334L306.369 259.016L302.972 262.331L303.774 267.01L299.574 264.801L295.374 267.01L296.177 262.331L292.779 259.016L297.475 258.334L299.574 254.077Z" fill="#FED53B"/>
<path d="M318.428 254.077L320.527 258.334L325.223 259.016L321.825 262.331L322.627 267.01L318.428 264.801L314.228 267.01L315.03 262.331L311.633 259.016L316.327 258.334L318.428 254.077Z" fill="#FED53B"/>
<path d="M337.279 254.077L339.379 258.334L344.074 259.016L340.677 262.331L341.479 267.01L337.279 264.801L333.08 267.01L333.882 262.331L330.484 259.016L335.18 258.334L337.279 254.077Z" fill="#FED53B"/>
<path d="M324.783 172.919H304.447C304.013 172.919 303.66 172.567 303.66 172.131C303.66 171.697 304.012 171.344 304.447 171.344H324.783C325.217 171.344 325.57 171.696 325.57 172.131C325.57 172.567 325.217 172.919 324.783 172.919Z" fill="#191919"/>
<path d="M331.803 172.132C331.803 172.741 331.309 173.234 330.701 173.234C330.093 173.234 329.6 172.741 329.6 172.132C329.6 171.523 330.093 171.03 330.701 171.03C331.309 171.029 331.803 171.523 331.803 172.132Z" fill="#191919"/>
<path d="M322.798 214.893V210.455H319.436V198.072H317.396V210.455H293.984V198.072H291.951V210.455H288.234V214.893H304.032V217.977L288.234 230.504V233.113L304.032 220.578V227.034C299.181 228.055 295.548 232.357 295.548 237.513C295.548 237.891 295.57 238.269 295.608 238.639H299.673C299.605 238.269 299.574 237.898 299.574 237.513C299.574 233.823 302.559 230.829 306.245 230.829C309.932 230.829 312.924 233.823 312.924 237.513C312.924 237.898 312.894 238.269 312.826 238.639H316.89C316.928 238.269 316.951 237.891 316.951 237.513C316.951 232.357 313.309 228.055 308.467 227.034V214.893H322.798Z" fill="#FDEB9F" stroke="#353535" stroke-width="0.378" stroke-miterlimit="10"/>
<path d="M305.515 200.664C303.51 200.664 301.887 202.29 301.887 204.294C301.887 205.826 304.004 209.571 305.004 211.254C305.234 211.641 305.796 211.641 306.025 211.254C307.026 209.571 309.143 205.826 309.143 204.294C309.142 202.29 307.518 200.664 305.515 200.664ZM305.515 206.38C304.409 206.38 303.513 205.483 303.513 204.378C303.513 203.272 304.409 202.374 305.515 202.374C306.62 202.374 307.517 203.272 307.517 204.378C307.517 205.484 306.62 206.38 305.515 206.38Z" fill="#F64F1A"/>
<path d="M300.7 281.007V276.196H302.858C303.413 276.196 303.839 276.308 304.137 276.533C304.435 276.753 304.584 277.055 304.584 277.44C304.584 277.701 304.524 277.921 304.405 278.1C304.29 278.278 304.135 278.416 303.938 278.512C303.74 278.608 303.527 278.656 303.298 278.656L303.422 278.45C303.697 278.45 303.94 278.498 304.151 278.595C304.361 278.691 304.529 278.833 304.652 279.021C304.776 279.204 304.838 279.433 304.838 279.708C304.838 280.12 304.682 280.441 304.371 280.67C304.064 280.895 303.605 281.007 302.996 281.007H300.7ZM301.388 280.45H302.968C303.349 280.45 303.64 280.386 303.841 280.258C304.043 280.13 304.144 279.928 304.144 279.653C304.144 279.374 304.043 279.17 303.841 279.041C303.64 278.913 303.349 278.849 302.968 278.849H301.326V278.292H302.797C303.145 278.292 303.415 278.228 303.608 278.1C303.8 277.971 303.896 277.779 303.896 277.522C303.896 277.266 303.8 277.073 303.608 276.945C303.415 276.817 303.145 276.753 302.797 276.753H301.388V280.45ZM308.074 281.062C307.708 281.062 307.366 281 307.05 280.876C306.738 280.753 306.468 280.581 306.239 280.361C306.01 280.136 305.831 279.875 305.703 279.577C305.575 279.28 305.51 278.954 305.51 278.601C305.51 278.249 305.575 277.923 305.703 277.625C305.831 277.328 306.01 277.069 306.239 276.849C306.468 276.624 306.738 276.45 307.05 276.326C307.362 276.203 307.703 276.141 308.074 276.141C308.441 276.141 308.777 276.203 309.084 276.326C309.396 276.446 309.666 276.617 309.895 276.842C310.129 277.062 310.308 277.321 310.432 277.619C310.56 277.916 310.624 278.244 310.624 278.601C310.624 278.959 310.56 279.286 310.432 279.584C310.308 279.882 310.129 280.143 309.895 280.368C309.666 280.588 309.396 280.76 309.084 280.883C308.777 281.002 308.441 281.062 308.074 281.062ZM308.074 280.45C308.34 280.45 308.585 280.405 308.81 280.313C309.039 280.221 309.236 280.093 309.401 279.928C309.57 279.758 309.701 279.561 309.792 279.337C309.889 279.112 309.937 278.867 309.937 278.601C309.937 278.336 309.889 278.091 309.792 277.866C309.701 277.641 309.57 277.447 309.401 277.282C309.236 277.112 309.039 276.982 308.81 276.89C308.585 276.798 308.34 276.753 308.074 276.753C307.804 276.753 307.554 276.798 307.325 276.89C307.1 276.982 306.903 277.112 306.734 277.282C306.564 277.447 306.431 277.641 306.335 277.866C306.244 278.091 306.198 278.336 306.198 278.601C306.198 278.867 306.244 279.112 306.335 279.337C306.431 279.561 306.564 279.758 306.734 279.928C306.903 280.093 307.1 280.221 307.325 280.313C307.554 280.405 307.804 280.45 308.074 280.45ZM313.847 281.062C313.48 281.062 313.139 281 312.822 280.876C312.511 280.753 312.24 280.581 312.011 280.361C311.782 280.136 311.604 279.875 311.475 279.577C311.347 279.28 311.283 278.954 311.283 278.601C311.283 278.249 311.347 277.923 311.475 277.625C311.604 277.328 311.782 277.069 312.011 276.849C312.24 276.624 312.511 276.45 312.822 276.326C313.134 276.203 313.475 276.141 313.847 276.141C314.213 276.141 314.55 276.203 314.857 276.326C315.168 276.446 315.439 276.617 315.668 276.842C315.902 277.062 316.08 277.321 316.204 277.619C316.332 277.916 316.397 278.244 316.397 278.601C316.397 278.959 316.332 279.286 316.204 279.584C316.08 279.882 315.902 280.143 315.668 280.368C315.439 280.588 315.168 280.76 314.857 280.883C314.55 281.002 314.213 281.062 313.847 281.062ZM313.847 280.45C314.112 280.45 314.357 280.405 314.582 280.313C314.811 280.221 315.008 280.093 315.173 279.928C315.343 279.758 315.473 279.561 315.565 279.337C315.661 279.112 315.709 278.867 315.709 278.601C315.709 278.336 315.661 278.091 315.565 277.866C315.473 277.641 315.343 277.447 315.173 277.282C315.008 277.112 314.811 276.982 314.582 276.89C314.357 276.798 314.112 276.753 313.847 276.753C313.576 276.753 313.326 276.798 313.097 276.89C312.873 276.982 312.676 277.112 312.506 277.282C312.337 277.447 312.204 277.641 312.108 277.866C312.016 278.091 311.97 278.336 311.97 278.601C311.97 278.867 312.016 279.112 312.108 279.337C312.204 279.561 312.337 279.758 312.506 279.928C312.676 280.093 312.873 280.221 313.097 280.313C313.326 280.405 313.576 280.45 313.847 280.45ZM318.052 279.846L318.018 279.007L320.746 276.196H321.53L319.42 278.423L319.035 278.849L318.052 279.846ZM317.447 281.007V276.196H318.134V281.007H317.447ZM320.856 281.007L318.884 278.711L319.344 278.203L321.66 281.007H320.856ZM322.387 281.007V276.196H323.075V281.007H322.387ZM324.515 281.007V276.196H325.079L328.261 280.148H327.965V276.196H328.653V281.007H328.089L324.907 277.055H325.202V281.007H324.515ZM332.265 281.062C331.894 281.062 331.552 281.002 331.241 280.883C330.929 280.76 330.659 280.588 330.43 280.368C330.2 280.143 330.022 279.882 329.893 279.584C329.765 279.286 329.701 278.959 329.701 278.601C329.701 278.244 329.765 277.916 329.893 277.619C330.022 277.321 330.2 277.062 330.43 276.842C330.663 276.617 330.936 276.446 331.247 276.326C331.559 276.203 331.903 276.141 332.278 276.141C332.659 276.141 333.007 276.203 333.323 276.326C333.639 276.45 333.907 276.636 334.127 276.883L333.701 277.309C333.504 277.117 333.289 276.977 333.055 276.89C332.826 276.798 332.576 276.753 332.306 276.753C332.031 276.753 331.774 276.798 331.536 276.89C331.302 276.982 331.099 277.11 330.924 277.275C330.755 277.44 330.622 277.637 330.526 277.866C330.434 278.091 330.388 278.336 330.388 278.601C330.388 278.863 330.434 279.108 330.526 279.337C330.622 279.561 330.755 279.758 330.924 279.928C331.099 280.093 331.302 280.221 331.536 280.313C331.77 280.405 332.024 280.45 332.299 280.45C332.556 280.45 332.801 280.411 333.035 280.334C333.273 280.251 333.493 280.116 333.694 279.928L334.086 280.45C333.848 280.652 333.568 280.805 333.248 280.911C332.931 281.012 332.604 281.062 332.265 281.062ZM333.426 280.361V278.574H334.086V280.45L333.426 280.361Z" fill="#F0F0F0"/>
<path d="M361.645 321.429V361.746H349.24C349.24 361.746 349.406 341.1 349.3 324.294C349.24 313.528 349.066 304.335 348.673 303.156C347.668 300.132 332.302 292.066 332.936 268.758C333.563 245.451 327.897 249.102 321.725 235.116C318.945 228.803 319.36 224.819 321.045 222.476C323.092 219.626 326.998 219.21 329.28 219.996C333.435 221.432 352.579 250.357 355.473 254.077C358.366 257.796 359.122 257.04 361.645 261.07C364.161 265.107 361.645 321.429 361.645 321.429Z" fill="#FEA94E"/>
<path d="M388.338 336.692V350.134H343.258V336.692C343.258 332.255 346.862 328.648 351.296 328.648H380.3C384.742 328.648 388.338 332.255 388.338 336.692Z" fill="#8495C3"/>
<path d="M296.985 185.485C296.274 185.073 295.363 185.317 294.952 186.029C294.601 186.638 294.729 187.392 295.219 187.855L294.516 189.073L295.169 189.451L295.881 188.218C296.509 188.376 297.189 188.108 297.529 187.519C297.941 186.807 297.697 185.896 296.985 185.485ZM295.733 187.655C295.247 187.374 295.08 186.752 295.361 186.266C295.642 185.779 296.264 185.612 296.75 185.894C297.235 186.175 297.402 186.797 297.121 187.283C296.84 187.769 296.219 187.936 295.733 187.655Z" fill="#353535"/>
<path d="M298.622 184.212H298.496V190.009H298.622V184.212Z" fill="#353535"/>
<path d="M311.845 185.135V185.009H311.338V185.135H311.528V189.085H311.338V189.211H311.845V189.085H311.655V185.135H311.845Z" fill="#353535"/>
<path d="M302.932 185.852H303.134V188.634H302.932V185.852ZM301.072 188.634H300.87V185.852H301.072V188.634ZM302.955 187.31H301.048V187.132H302.955V187.31ZM304.852 188.649C304.654 188.649 304.476 188.604 304.32 188.514C304.166 188.424 304.043 188.3 303.951 188.141C303.86 187.982 303.815 187.8 303.815 187.597C303.815 187.39 303.86 187.208 303.951 187.052C304.043 186.893 304.166 186.769 304.32 186.679C304.476 186.589 304.654 186.544 304.852 186.544C305.051 186.544 305.229 186.589 305.385 186.679C305.541 186.769 305.664 186.893 305.754 187.052C305.844 187.208 305.889 187.39 305.889 187.597C305.889 187.8 305.844 187.982 305.754 188.141C305.664 188.3 305.541 188.424 305.385 188.514C305.229 188.604 305.051 188.649 304.852 188.649ZM304.852 188.471C305.011 188.471 305.154 188.435 305.282 188.363C305.409 188.289 305.508 188.186 305.58 188.053C305.651 187.921 305.687 187.769 305.687 187.597C305.687 187.422 305.651 187.269 305.58 187.14C305.508 187.007 305.409 186.905 305.282 186.834C305.154 186.76 305.011 186.722 304.852 186.722C304.694 186.722 304.551 186.76 304.423 186.834C304.299 186.905 304.2 187.007 304.125 187.14C304.054 187.269 304.018 187.422 304.018 187.597C304.018 187.769 304.054 187.921 304.125 188.053C304.2 188.186 304.299 188.289 304.423 188.363C304.551 188.435 304.694 188.471 304.852 188.471ZM307.11 188.649C306.927 188.649 306.787 188.599 306.689 188.498C306.593 188.398 306.546 188.26 306.546 188.085V186.107H306.744V188.065C306.744 188.198 306.777 188.3 306.844 188.371C306.91 188.443 307.005 188.479 307.13 188.479C307.259 188.479 307.367 188.44 307.451 188.363L307.535 188.502C307.482 188.553 307.417 188.59 307.34 188.614C307.266 188.638 307.189 188.649 307.11 188.649ZM306.164 186.73V186.56H307.404V186.73H306.164ZM308.858 188.649C308.648 188.649 308.463 188.604 308.301 188.514C308.142 188.424 308.016 188.3 307.924 188.141C307.834 187.982 307.789 187.8 307.789 187.597C307.789 187.39 307.831 187.208 307.916 187.052C308.003 186.893 308.122 186.769 308.273 186.679C308.424 186.589 308.594 186.544 308.782 186.544C308.97 186.544 309.138 186.587 309.287 186.675C309.438 186.762 309.555 186.885 309.64 187.044C309.728 187.201 309.771 187.382 309.771 187.589C309.771 187.597 309.77 187.606 309.767 187.616C309.767 187.624 309.767 187.634 309.767 187.644H307.936V187.489H309.66L309.581 187.565C309.583 187.403 309.549 187.259 309.477 187.132C309.408 187.002 309.314 186.901 309.195 186.83C309.076 186.756 308.938 186.718 308.782 186.718C308.628 186.718 308.491 186.756 308.369 186.83C308.25 186.901 308.156 187.002 308.087 187.132C308.018 187.259 307.983 187.404 307.983 187.569V187.604C307.983 187.774 308.02 187.925 308.095 188.057C308.171 188.187 308.276 188.289 308.409 188.363C308.541 188.435 308.692 188.471 308.861 188.471C308.994 188.471 309.117 188.447 309.231 188.399C309.348 188.351 309.446 188.279 309.525 188.181L309.64 188.312C309.55 188.423 309.436 188.508 309.299 188.566C309.163 188.622 309.016 188.649 308.858 188.649ZM310.386 188.634V185.685H310.585V188.634H310.386Z" fill="black"/>
<path d="M355.475 254.077V229.572C355.475 229.572 357.283 228.986 357.993 238.639C358.698 248.22 355.475 254.077 355.475 254.077Z" fill="#EE7F3A"/>
<path d="M348.672 303.156C349.425 304.241 355.809 300.51 355.471 328.651L349.238 328.927L348.672 303.156Z" fill="#EE7F3A"/>
<path d="M352.073 324.83C352.073 324.83 350.932 324.619 349.3 324.294C349.24 313.528 349.066 304.335 348.673 303.156C347.668 300.132 332.302 292.065 332.936 268.758C333.563 245.45 327.897 249.102 321.725 235.116C318.945 228.803 319.36 224.819 321.045 222.476H321.052C321.052 222.476 323.262 235.759 332.571 245.93C339.046 253.004 333.797 266.868 341.239 285.012C348.673 303.156 353.072 300.336 353.888 311.472C354.468 319.39 352.073 324.83 352.073 324.83Z" fill="#EE7F3A"/>
<path d="M388.338 344.109V350.134H343.258V336.692C343.258 332.255 346.862 328.648 351.296 328.648H355.474C355.474 328.648 349.785 345.243 388.338 344.109Z" fill="#605D88"/>
<path d="M395.385 358.631V378H336.396V358.631C336.396 351.653 342.048 345.998 349.021 345.998H382.761C389.734 345.998 395.385 351.653 395.385 358.631Z" fill="#8495C3"/>
<path d="M348.673 378H336.396V358.631C336.396 351.653 342.048 345.998 349.021 345.998H365.8C365.8 345.998 342.002 356.325 348.673 378Z" fill="#605D88"/>
<path opacity="0.15" d="M351.601 213.948C351.028 213.948 350.562 213.482 350.562 212.908V186.259C350.562 185.686 351.028 185.22 351.601 185.22C352.175 185.22 352.64 185.686 352.64 186.259V212.908C352.64 213.482 352.175 213.948 351.601 213.948Z" fill="#F0F0F0"/>
<path opacity="0.15" d="M352.654 182.259C352.654 182.842 352.182 183.314 351.6 183.314C351.017 183.314 350.545 182.842 350.545 182.259C350.545 181.676 351.017 181.203 351.6 181.203C352.182 181.204 352.654 181.676 352.654 182.259Z" fill="#F0F0F0"/>
<path d="M250.164 45.7605C250.164 52.5494 259.555 69.1512 263.99 76.6129C265.01 78.329 267.495 78.329 268.515 76.6129C268.923 75.9249 269.376 75.1614 269.852 74.3298C274.597 66.1725 282.333 51.9219 282.333 45.7605C282.333 36.87 275.133 29.6653 266.249 29.6653C263.415 29.6653 260.764 30.3986 258.452 31.6838C253.511 34.4281 250.164 39.705 250.164 45.7605ZM257.379 46.131C257.379 41.2245 261.353 37.248 266.249 37.248C266.679 37.248 267.102 37.2782 267.518 37.3387C271.817 37.951 275.126 41.6554 275.126 46.131C275.126 51.0072 271.182 54.9762 266.309 55.0064H266.249C261.353 55.0064 257.379 51.0298 257.379 46.131Z" fill="#F44E1A"/>
<path d="M250.164 45.7606C250.164 52.5494 259.555 69.1512 263.99 76.6129C265.01 78.329 267.495 78.329 268.515 76.6129C268.923 75.925 269.376 75.1614 269.852 74.3298C246.001 53.7666 254.372 37.248 258.452 31.6838C253.511 34.4281 250.164 39.705 250.164 45.7606Z" fill="#E33D0D"/>
<path d="M266.309 55.0062C269.716 55.3388 275.458 54.855 276.243 48.0056C277.377 38.1776 267.555 37.1721 267.555 37.1721L267.517 37.3384C271.816 37.9508 275.125 41.6552 275.125 46.1307C275.125 51.0069 271.182 54.9759 266.309 55.0062Z" fill="#E33D0D"/>
<path d="M118.453 288.276C118.448 288.641 118.149 288.934 117.783 288.928C117.417 288.923 117.126 288.623 117.131 288.258C117.135 287.893 117.435 287.6 117.801 287.605C118.166 287.611 118.458 287.911 118.453 288.276Z" fill="#F0F0F0"/>
<path d="M127.017 72.5176H8.98285C0.468622 72.5176 -3.2292 61.8124 3.40838 56.4876C9.00133 52.004 16.0919 49.3138 23.8111 49.3138C27.4904 49.3138 31.0218 49.924 34.3221 51.0518C38.2511 52.3923 42.6237 50.7652 44.7407 47.1876C50.4261 37.601 60.8725 31.176 72.8164 31.176C75.2662 31.176 77.6421 31.4441 79.9347 31.9526C88.2363 33.8015 95.3546 38.8213 99.9399 45.6715C101.78 48.4263 105.015 49.9424 108.306 49.5449C109.582 49.397 110.876 49.3138 112.189 49.3138C119.908 49.3138 126.999 52.004 132.592 56.4876C139.229 61.8124 135.531 72.5176 127.017 72.5176Z" fill="#EDEDED"/>
<path opacity="0.5" d="M79.9347 31.9526C69.8304 36.1681 59.9572 41.4282 59.0698 46.1337C57.2209 55.9976 15.9255 60.888 19.0039 66.7028C19.9191 68.4223 20.5663 70.3636 21.0562 72.5176H8.98285C0.468622 72.5176 -3.2292 61.8124 3.40838 56.4876C9.00133 52.004 16.0919 49.3138 23.8111 49.3138C27.4904 49.3138 31.0218 49.924 34.3221 51.0518C38.2511 52.3923 42.6237 50.7652 44.7407 47.1876C50.4261 37.601 60.8725 31.176 72.8164 31.176C75.2662 31.176 77.6421 31.4441 79.9347 31.9526Z" fill="#DEDEDE"/>
<path d="M380.583 80.9226H309.417C304.288 80.9226 302.051 74.4663 306.054 71.2575C309.425 68.55 313.706 66.9379 318.357 66.9379C320.571 66.9379 322.708 67.3004 324.69 67.9792C327.066 68.7891 329.704 67.8018 330.977 65.6497C334.402 59.8722 340.704 56 347.908 56C349.335 56 350.723 56.1543 352.066 56.4397C357.126 57.535 361.469 60.5742 364.253 64.7395C365.364 66.3979 367.323 67.3081 369.306 67.0767C370.069 66.9842 370.848 66.9379 371.643 66.9379C376.294 66.9379 380.575 68.55 383.946 71.2575C387.949 74.4663 385.712 80.9226 380.583 80.9226Z" fill="#F0F0F0"/>
<path opacity="0.5" d="M352.066 56.4397C346.172 58.9312 337.765 63.2893 336.129 68.4575C333.561 76.5799 318.134 69.6376 315.303 76.0631C314.462 77.9683 315.002 79.5728 315.843 80.9226H309.417C304.288 80.9226 302.051 74.4663 306.054 71.2575C309.425 68.55 313.706 66.9379 318.357 66.9379C320.571 66.9379 322.708 67.3004 324.69 67.9792C327.066 68.7891 329.704 67.8018 330.977 65.6497C334.402 59.8722 340.704 56 347.908 56C349.335 56 350.723 56.1543 352.066 56.4397Z" fill="#DEDEDE"/>
</svg>
