<svg width="24" height="25" viewBox="0 0 24 25" fill="none" xmlns="http://www.w3.org/2000/svg">
<path d="M8 10.1813L12.1232 6.05809C13.2481 4.93323 13.8105 4.37079 14.4312 3.91779C15.7047 2.98835 17.1818 2.37652 18.7395 2.13323C19.4988 2.01465 20.2942 2.01465 21.885 2.01465C21.9681 2.01465 22 2.05277 22 2.12969C22 3.72049 22 4.5159 21.8814 5.27511C21.6381 6.83283 21.0263 8.30992 20.0969 9.58343C19.6439 10.2041 19.0814 10.7665 17.9566 11.8914L13.8333 16.0146" stroke="#5B1BA6" stroke-width="1.5" stroke-linecap="round" stroke-linejoin="round"/>
<path d="M10.341 8.11303C8.63808 8.11303 6.49778 7.7523 4.9043 8.41234C3.73671 8.89597 2.87754 10.0158 2 10.8933L5.30597 12.3101C6.18208 12.6856 5.64651 13.7912 5.50147 14.5164C5.33985 15.3245 5.34886 15.3543 5.93158 15.937L8.07758 18.083C8.6603 18.6657 8.69008 18.6748 9.49816 18.5131C10.2234 18.3681 11.329 17.8325 11.7044 18.7086L13.1213 22.0146C13.9988 21.1371 15.1187 20.2779 15.6023 19.1103C16.2624 17.5168 15.9016 15.3765 15.9016 13.6736" stroke="#5B1BA6" stroke-width="1.5" stroke-linejoin="round"/>
<path d="M12 20.0146L11 21.0146" stroke="#5B1BA6" stroke-width="1.5" stroke-linecap="round" stroke-linejoin="round"/>
<path d="M4 12.0146L3 13.0146" stroke="#5B1BA6" stroke-width="1.5" stroke-linecap="round" stroke-linejoin="round"/>
<path d="M15 4.09473C16.2 4.27473 17.46 4.75473 18.1614 5.47473C19.0576 6.26688 19.68 7.33473 19.92 9.01473" stroke="#5B1BA6" stroke-width="1.5" stroke-linecap="square"/>
<path d="M17.94 6.07471L16.5 7.51471" stroke="#5B1BA6" stroke-width="1.5" stroke-linecap="round"/>
</svg>
