<svg width="20" height="20" viewBox="0 0 20 20" fill="none" xmlns="http://www.w3.org/2000/svg">
<path d="M8.04688 17.8125C10.6357 17.8125 12.7344 15.7138 12.7344 13.125V7.0667C13.5161 7.69335 14.4516 8.13603 15.4754 8.32908C15.7491 8.38069 15.886 8.4065 16.0548 8.36286C16.2555 8.31101 16.4784 8.12625 16.5665 7.93873C16.6406 7.78088 16.6406 7.60913 16.6406 7.26562C16.6406 6.90732 16.6406 6.72816 16.6015 6.60924C16.5368 6.41242 16.4806 6.33632 16.3117 6.21636C16.2096 6.14387 15.9684 6.06934 15.4859 5.92028C14.2572 5.54062 13.2875 4.57093 12.9078 3.34217C12.7588 2.85973 12.6842 2.61851 12.6118 2.51644C12.4918 2.34749 12.4157 2.29136 12.2189 2.22662C12.0999 2.1875 11.9208 2.1875 11.5625 2.1875C11.1985 2.1875 11.0165 2.1875 10.8729 2.24697C10.6815 2.32626 10.5294 2.47835 10.4501 2.66978C10.3906 2.81335 10.3906 2.99536 10.3906 3.35938V13.125C10.3906 14.4195 9.34133 15.4688 8.04688 15.4688C6.75246 15.4688 5.70312 14.4195 5.70312 13.125C5.70312 12.2378 6.1961 11.4657 6.92308 11.0677C7.463 10.7722 7.73297 10.6244 7.80855 10.5513C7.95754 10.4073 7.96433 10.3959 8.01909 10.1961C8.04688 10.0947 8.04688 9.93289 8.04688 9.60938C8.04688 9.27711 8.04687 9.11102 7.96738 8.94852C7.87632 8.76242 7.62806 8.56945 7.42523 8.52711C7.24816 8.49016 7.12773 8.52086 6.88686 8.58211C4.85909 9.09836 3.35938 10.9366 3.35938 13.125C3.35938 15.7138 5.45804 17.8125 8.04688 17.8125Z" stroke="white" stroke-width="1.17188" stroke-linecap="round" stroke-linejoin="round"/>
</svg>
